<svg width="90" height="90" viewBox="0 0 90 90" fill="none" xmlns="http://www.w3.org/2000/svg">
<path d="M60 7.5H30C16.875 7.5 11.25 15 11.25 26.25V43.0125C11.25 44.325 12.525 45.225 13.725 44.775C17.85 43.1625 22.5375 42.6375 27.375 43.6125C37.125 45.5625 44.8875 53.5875 46.5 63.375C47.475 69.3375 46.275 75 43.5375 79.6875C42.7875 80.925 43.6875 82.5 45.15 82.5H60C73.125 82.5 78.75 75 78.75 63.75V26.25C78.75 15 73.125 7.5 60 7.5ZM69.375 34.6875H61.875C56.175 34.6875 51.5625 30.075 51.5625 24.375V16.875C51.5625 15.3375 52.8375 14.0625 54.375 14.0625C55.9125 14.0625 57.1875 15.3375 57.1875 16.875V24.375C57.1875 26.9625 59.2875 29.0625 61.875 29.0625H69.375C70.9125 29.0625 72.1875 30.3375 72.1875 31.875C72.1875 33.4125 70.9125 34.6875 69.375 34.6875Z" fill="#4B41F4"/>
<path d="M22.5 48.75C12.15 48.75 3.75 57.15 3.75 67.5C3.75 77.85 12.15 86.25 22.5 86.25C32.85 86.25 41.25 77.85 41.25 67.5C41.25 57.15 32.85 48.75 22.5 48.75ZM19.35 72.2625C20.2875 73.2 20.2875 74.7375 19.35 75.7125C18.8625 76.2 18.2625 76.425 17.625 76.425C16.9875 76.425 16.3875 76.2 15.9 75.7125L9.4125 69.225C8.475 68.2875 8.475 66.75 9.4125 65.775L15.9 59.2875C16.8375 58.35 18.375 58.35 19.35 59.2875C20.2875 60.225 20.2875 61.7625 19.35 62.7375L14.5875 67.5L19.35 72.2625ZM35.55 69.225L29.0625 75.7125C28.575 76.2 27.975 76.425 27.3375 76.425C26.7 76.425 26.1 76.2 25.6125 75.7125C24.675 74.775 24.675 73.2375 25.6125 72.2625L30.4125 67.5L25.65 62.7375C24.7125 61.8 24.7125 60.2625 25.65 59.2875C26.5875 58.35 28.125 58.35 29.1 59.2875L35.5875 65.775C36.4875 66.75 36.4875 68.25 35.55 69.225Z" fill="#4B41F4"/>
</svg>
