<svg width="84" height="84" viewBox="0 0 84 84" fill="none" xmlns="http://www.w3.org/2000/svg">
<path d="M70 23.625C75.3157 23.625 79.625 19.3157 79.625 14C79.625 8.68426 75.3157 4.375 70 4.375C64.6843 4.375 60.375 8.68426 60.375 14C60.375 19.3157 64.6843 23.625 70 23.625Z" fill="#9359DC"/>
<path d="M66.64 28.525C61.145 27.335 56.665 22.855 55.475 17.36C55.02 15.225 54.985 13.16 55.37 11.2C55.825 9.03 54.215 7 51.975 7H24.5C14.84 7 7 14.84 7 24.5V48.825C7 58.485 14.84 66.325 24.5 66.325H29.75C30.73 66.325 31.99 66.955 32.55 67.725L37.8 74.69C40.11 77.77 43.89 77.77 46.2 74.69L51.45 67.725C52.115 66.85 53.13 66.325 54.25 66.325H59.535C69.195 66.325 77 58.52 77 48.86V32.025C77 29.82 74.97 28.21 72.8 28.63C70.84 28.98 68.775 28.98 66.64 28.525ZM28 42C26.04 42 24.5 40.425 24.5 38.5C24.5 36.575 26.04 35 28 35C29.925 35 31.5 36.575 31.5 38.5C31.5 40.425 29.96 42 28 42ZM42 42C40.04 42 38.5 40.425 38.5 38.5C38.5 36.575 40.04 35 42 35C43.925 35 45.5 36.575 45.5 38.5C45.5 40.425 43.96 42 42 42ZM56 42C54.04 42 52.5 40.425 52.5 38.5C52.5 36.575 54.04 35 56 35C57.925 35 59.5 36.575 59.5 38.5C59.5 40.425 57.96 42 56 42Z" fill="#9359DC"/>
</svg>
