<svg width="48" height="48" viewBox="0 0 48 48" fill="none" xmlns="http://www.w3.org/2000/svg">
<g clip-path="url(#clip0_301_62)">
<path d="M36 0H12C5.37258 0 0 5.37258 0 12V36C0 42.6274 5.37258 48 12 48H36C42.6274 48 48 42.6274 48 36V12C48 5.37258 42.6274 0 36 0Z" fill="url(#paint0_linear_301_62)"/>
<path fill-rule="evenodd" clip-rule="evenodd" d="M12.125 22.3C12.125 19.2197 12.125 17.6796 12.7245 16.5031C13.2518 15.4682 14.0932 14.6268 15.1281 14.0995C16.3046 13.5 17.8447 13.5 20.925 13.5H28.075C31.1553 13.5 32.6954 13.5 33.8719 14.0995C34.9068 14.6268 35.7482 15.4682 36.2755 16.5031C36.875 17.6796 36.875 19.2197 36.875 22.3V23.95C36.875 27.0303 36.875 28.5704 36.2755 29.747C35.7482 30.7818 34.9068 31.6232 33.8719 32.1505C32.6954 32.75 31.1553 32.75 28.075 32.75L18.1945 32.75C17.8299 32.75 17.4801 32.8949 17.2223 33.1527L14.4723 35.9027C13.6061 36.7689 12.125 36.1555 12.125 34.9305V32.75V25.875V22.3ZM20.375 18.9989C19.6156 18.9989 19 19.6145 19 20.3739C19 21.1333 19.6156 21.7489 20.375 21.7489H28.625C29.3844 21.7489 30 21.1333 30 20.3739C30 19.6145 29.3844 18.9989 28.625 18.9989H20.375ZM20.375 24.4989C19.6156 24.4989 19 25.1145 19 25.8739C19 26.6333 19.6156 27.2489 20.375 27.2489H24.5C25.2594 27.2489 25.875 26.6333 25.875 25.8739C25.875 25.1145 25.2594 24.4989 24.5 24.4989H20.375Z" fill="#222222"/>
</g>
<defs>
<linearGradient id="paint0_linear_301_62" x1="49.5" y1="0.499998" x2="-4" y2="48" gradientUnits="userSpaceOnUse">
<stop stop-color="#AC6AFF"/>
<stop offset="1" stop-color="#4C2979"/>
</linearGradient>
<clipPath id="clip0_301_62">
<rect width="48" height="48" fill="white"/>
</clipPath>
</defs>
</svg>
