<svg width="48" height="48" viewBox="0 0 48 48" fill="none" xmlns="http://www.w3.org/2000/svg">
<path d="M36 0H12C5.37258 0 0 5.37258 0 12V36C0 42.6274 5.37258 48 12 48H36C42.6274 48 48 42.6274 48 36V12C48 5.37258 42.6274 0 36 0Z" fill="url(#paint0_linear_302_98)"/>
<path d="M35.7955 34.6154C36.3851 34.4926 36.7361 33.877 36.4635 33.34C35.6433 31.7244 34.2724 30.3047 32.4868 29.239C30.3255 27.9491 27.6775 27.25 24.9533 27.25C22.2292 27.25 19.5811 27.9491 17.4199 29.239C15.6343 30.3047 14.2634 31.7244 13.4432 33.34C13.1705 33.877 13.5215 34.4926 14.1111 34.6154L16.7925 35.1742C22.1752 36.296 27.7314 36.296 33.1142 35.1742L35.7955 34.6154Z" fill="#222222"/>
<circle cx="24.875" cy="19" r="6.875" fill="#222222"/>
<defs>
<linearGradient id="paint0_linear_302_98" x1="49.5" y1="0.499998" x2="-4" y2="48" gradientUnits="userSpaceOnUse">
<stop stop-color="#FFE074"/>
<stop offset="1" stop-color="#9A7800"/>
</linearGradient>
</defs>
</svg>
