<svg width="48" height="48" viewBox="0 0 48 48" fill="none" xmlns="http://www.w3.org/2000/svg">
<path d="M36 0H12C5.37258 0 0 5.37258 0 12V36C0 42.6274 5.37258 48 12 48H36C42.6274 48 48 42.6274 48 36V12C48 5.37258 42.6274 0 36 0Z" fill="url(#paint0_linear_305_62)"/>
<path d="M17.8762 19.1657C20.1632 25.4046 22.5308 27.8938 28.554 30.5452L25.9437 34.2111C19.0272 30.8998 15.5823 25.318 13.9598 20.962L17.8762 19.1657Z" fill="#222222"/>
<path d="M19.7977 10.5557C21.0206 10.551 21.9504 11.5685 21.8671 12.7208C21.7359 14.534 21.8756 15.8422 22.2516 17.4638C22.4582 18.3546 21.9909 19.2593 21.2482 19.842C20.2472 20.6274 19.4824 21.6282 18.8746 22.4897C18.0321 23.6837 15.1329 23.5979 14.4918 22.2971C13.1741 19.6237 12.2811 14.6984 14.2053 11.3707C14.5075 10.8481 15.1161 10.574 15.7467 10.5716L19.7977 10.5557Z" fill="#222222"/>
<path d="M38.3561 30.3358C38.5082 29.1898 37.5504 28.1957 36.3291 28.1353C34.4073 28.0402 33.0489 27.7519 31.3895 27.2043C30.478 26.9035 29.4709 27.2329 28.769 27.8591C27.823 28.7032 26.6791 29.2998 25.7004 29.7661C24.3439 30.4123 24.0854 33.1408 25.3757 33.8984C28.0275 35.4553 33.0975 36.8848 36.8268 35.4809C37.4126 35.2604 37.7738 34.7228 37.8523 34.1319L38.3561 30.3358Z" fill="#222222"/>
<defs>
<linearGradient id="paint0_linear_305_62" x1="49.5" y1="0.499998" x2="-4" y2="48" gradientUnits="userSpaceOnUse">
<stop stop-color="#FF6566"/>
<stop offset="1" stop-color="#D31800"/>
</linearGradient>
</defs>
</svg>
