<svg width="90" height="90" viewBox="0 0 90 90" fill="none" xmlns="http://www.w3.org/2000/svg">
<path d="M33.75 7.5C23.925 7.5 15.9375 15.4875 15.9375 25.3125C15.9375 34.95 23.475 42.75 33.3 43.0875C33.6 43.05 33.9 43.05 34.125 43.0875C34.2 43.0875 34.2375 43.0875 34.3125 43.0875C34.35 43.0875 34.35 43.0875 34.3875 43.0875C43.9875 42.75 51.525 34.95 51.5625 25.3125C51.5625 15.4875 43.575 7.5 33.75 7.5Z" fill="#E8C95A"/>
<path d="M52.7996 53.0633C42.3371 46.0883 25.2746 46.0883 14.7371 53.0633C9.97461 56.2508 7.34961 60.5633 7.34961 65.1758C7.34961 69.7883 9.97461 74.0633 14.6996 77.2133C19.9496 80.7383 26.8496 82.5008 33.7496 82.5008C40.6496 82.5008 47.5496 80.7383 52.7996 77.2133C57.5246 74.0258 60.1496 69.7508 60.1496 65.1008C60.1121 60.4883 57.5246 56.2133 52.7996 53.0633Z" fill="#E8C95A"/>
<path d="M74.9621 27.5259C75.5621 34.8009 70.3871 41.1759 63.2246 42.0384C63.1871 42.0384 63.1871 42.0384 63.1496 42.0384H63.0371C62.8121 42.0384 62.5871 42.0384 62.3996 42.1134C58.7621 42.3009 55.4246 41.1384 52.9121 39.0009C56.7746 35.5509 58.9871 30.3759 58.5371 24.7509C58.2746 21.7134 57.2246 18.9384 55.6496 16.5759C57.0746 15.8634 58.7246 15.4134 60.4121 15.2634C67.7621 14.6259 74.3246 20.1009 74.9621 27.5259Z" fill="#E8C95A"/>
<path d="M82.4629 62.212C82.1629 65.8495 79.8379 68.9995 75.9379 71.137C72.1879 73.1995 67.4629 74.1745 62.7754 74.062C65.4754 71.6245 67.0504 68.587 67.3504 65.362C67.7254 60.712 65.5129 56.2495 61.0879 52.687C58.5754 50.6995 55.6504 49.1245 52.4629 47.962C60.7504 45.562 71.1754 47.1745 77.5879 52.3495C81.0379 55.1245 82.8004 58.612 82.4629 62.212Z" fill="#E8C95A"/>
</svg>
