<svg width="48" height="48" viewBox="0 0 48 48" fill="none" xmlns="http://www.w3.org/2000/svg">
<g clip-path="url(#clip0_301_72)">
<path d="M36 0H12C5.37258 0 0 5.37258 0 12V36C0 42.6274 5.37258 48 12 48H36C42.6274 48 48 42.6274 48 36V12C48 5.37258 42.6274 0 36 0Z" fill="url(#paint0_linear_301_72)"/>
<path d="M30 18V16.625C30 16.1607 30 15.9285 29.9846 15.7327C29.7916 13.2808 27.8442 11.3334 25.3923 11.1404C25.1965 11.125 24.9643 11.125 24.5 11.125V11.125C24.0357 11.125 23.8035 11.125 23.6077 11.1404C21.1558 11.3334 19.2084 13.2808 19.0154 15.7327C19 15.9285 19 16.1607 19 16.625V18" stroke="#222222" stroke-width="2" stroke-linecap="round"/>
<path fill-rule="evenodd" clip-rule="evenodd" d="M13.0037 17.5037C12.125 18.3824 12.125 19.7966 12.125 22.625V29.25C12.125 33.0212 12.125 34.9069 13.2966 36.0784C14.4681 37.25 16.3538 37.25 20.125 37.25H28.875C32.6462 37.25 34.5319 37.25 35.7034 36.0784C36.875 34.9069 36.875 33.0212 36.875 29.25V22.625C36.875 19.7966 36.875 18.3824 35.9963 17.5037C35.1176 16.625 33.7034 16.625 30.875 16.625H18.125C15.2966 16.625 13.8824 16.625 13.0037 17.5037ZM24.5 28.375C25.6736 28.375 26.625 27.4236 26.625 26.25C26.625 25.0764 25.6736 24.125 24.5 24.125C23.3264 24.125 22.375 25.0764 22.375 26.25C22.375 27.4236 23.3264 28.375 24.5 28.375ZM28.625 26.25C28.625 28.1833 27.295 29.806 25.5 30.253V33.125H23.5V30.253C21.705 29.806 20.375 28.1833 20.375 26.25C20.375 23.9718 22.2218 22.125 24.5 22.125C26.7782 22.125 28.625 23.9718 28.625 26.25Z" fill="#222222"/>
</g>
<defs>
<linearGradient id="paint0_linear_301_72" x1="49.5" y1="0.499998" x2="-4" y2="48" gradientUnits="userSpaceOnUse">
<stop stop-color="#7BF569"/>
<stop offset="1" stop-color="#00842D"/>
</linearGradient>
<clipPath id="clip0_301_72">
<rect width="48" height="48" fill="white"/>
</clipPath>
</defs>
</svg>
