<svg width="48" height="48" viewBox="0 0 48 48" fill="none" xmlns="http://www.w3.org/2000/svg">
<path d="M36 0H12C5.37258 0 0 5.37258 0 12V36C0 42.6274 5.37258 48 12 48H36C42.6274 48 48 42.6274 48 36V12C48 5.37258 42.6274 0 36 0Z" fill="url(#paint0_linear_305_84)"/>
<path d="M30 10.709H19C13.5 10.709 10.75 13.459 10.75 18.959V25.834C10.75 32.709 13.5 34.084 19 34.084H19.6875C20.0725 34.084 20.5675 34.3315 20.7875 34.634L22.85 37.384C23.7575 38.594 25.2425 38.594 26.15 37.384L28.2125 34.634C28.4737 34.2902 28.8862 34.084 29.3125 34.084H30C35.5 34.084 38.25 31.334 38.25 25.834V18.959C38.25 13.459 35.5 10.709 30 10.709ZM19.7287 24.734C20.1275 25.1327 20.1275 25.7927 19.7287 26.1915C19.5225 26.3977 19.2612 26.494 19 26.494C18.7388 26.494 18.4775 26.3977 18.2712 26.1915L15.5212 23.4415C15.1225 23.0427 15.1225 22.3827 15.5212 21.984L18.2712 19.234C18.67 18.8352 19.33 18.8352 19.7287 19.234C20.1275 19.6327 20.1275 20.2927 19.7287 20.6915L17.7075 22.7127L19.7287 24.734ZM26.8237 19.9077L24.0737 26.329C23.9087 26.714 23.5237 26.9477 23.125 26.9477C22.9875 26.9477 22.85 26.9202 22.7125 26.8652C22.19 26.6452 21.9425 26.0402 22.1763 25.504L24.9263 19.0827C25.1463 18.5602 25.7513 18.3127 26.2875 18.5465C26.81 18.7802 27.0437 19.3852 26.8237 19.9077ZM33.4788 23.4415L30.7288 26.1915C30.5225 26.3977 30.2612 26.494 30 26.494C29.7388 26.494 29.4775 26.3977 29.2713 26.1915C28.8725 25.7927 28.8725 25.1327 29.2713 24.734L31.2925 22.7127L29.2713 20.6915C28.8725 20.2927 28.8725 19.6327 29.2713 19.234C29.67 18.8352 30.33 18.8352 30.7288 19.234L33.4788 21.984C33.8775 22.3827 33.8775 23.0427 33.4788 23.4415Z" fill="#171717"/>
<defs>
<linearGradient id="paint0_linear_305_84" x1="49.5" y1="0.499998" x2="-4" y2="48" gradientUnits="userSpaceOnUse">
<stop offset="0.1475" stop-color="#5248FF"/>
<stop offset="1" stop-color="#0A0389"/>
</linearGradient>
</defs>
</svg>
