<svg width="90" height="90" viewBox="0 0 90 90" fill="none" xmlns="http://www.w3.org/2000/svg">
<path d="M79.3125 23.1375C77.775 22.3125 74.55 21.45 70.1625 24.525L64.65 28.425C64.2375 16.7625 59.175 12.1875 46.875 12.1875H24.375C11.55 12.1875 6.5625 17.175 6.5625 30V60C6.5625 68.625 11.25 77.8125 24.375 77.8125H46.875C59.175 77.8125 64.2375 73.2375 64.65 61.575L70.1625 65.475C72.4875 67.125 74.5125 67.65 76.125 67.65C77.5125 67.65 78.6 67.2375 79.3125 66.8625C80.85 66.075 83.4375 63.9375 83.4375 58.575V31.425C83.4375 26.0625 80.85 23.925 79.3125 23.1375ZM41.25 42.675C37.3875 42.675 34.2 39.525 34.2 35.625C34.2 31.725 37.3875 28.575 41.25 28.575C45.1125 28.575 48.3 31.725 48.3 35.625C48.3 39.525 45.1125 42.675 41.25 42.675Z" fill="#F24F49"/>
</svg>
