<svg width="90" height="90" viewBox="0 0 90 90" fill="none" xmlns="http://www.w3.org/2000/svg">
<path d="M63.75 7.5H26.25C15.9 7.5 7.5 15.8625 7.5 26.175V48.6V52.35C7.5 62.6625 15.9 71.025 26.25 71.025H31.875C32.8875 71.025 34.2375 71.7 34.875 72.525L40.5 79.9875C42.975 83.2875 47.025 83.2875 49.5 79.9875L55.125 72.525C55.8375 71.5875 56.9625 71.025 58.125 71.025H63.75C74.1 71.025 82.5 62.6625 82.5 52.35V26.175C82.5 15.8625 74.1 7.5 63.75 7.5ZM48.75 51.5625H26.25C24.7125 51.5625 23.4375 50.2875 23.4375 48.75C23.4375 47.2125 24.7125 45.9375 26.25 45.9375H48.75C50.2875 45.9375 51.5625 47.2125 51.5625 48.75C51.5625 50.2875 50.2875 51.5625 48.75 51.5625ZM63.75 32.8125H26.25C24.7125 32.8125 23.4375 31.5375 23.4375 30C23.4375 28.4625 24.7125 27.1875 26.25 27.1875H63.75C65.2875 27.1875 66.5625 28.4625 66.5625 30C66.5625 31.5375 65.2875 32.8125 63.75 32.8125Z" fill="#F0DB4F"/>
</svg>
