<svg width="90" height="90" viewBox="0 0 90 90" fill="none" xmlns="http://www.w3.org/2000/svg">
<path d="M82.5027 48.2242C82.5027 56.8117 78.0777 64.4242 71.2527 69.2242L66.2277 80.2867C65.0652 82.7992 61.6902 83.2867 59.9277 81.1492L54.3777 74.4742C47.4027 74.4742 40.9902 72.1117 36.1152 68.1742L38.3652 65.5117C55.6902 64.1992 69.3777 50.4742 69.3777 33.7492C69.3777 30.8992 68.9652 28.0867 68.2152 25.3867C76.7277 29.8867 82.5027 38.4367 82.5027 48.2242Z" fill="#0B7FCC"/>
<path d="M61.125 22.7625C56.7375 13.7625 46.95 7.5 35.625 7.5C20.1 7.5 7.5 19.2375 7.5 33.75C7.5 42.3375 11.925 49.95 18.75 54.75L23.775 65.8125C24.9375 68.325 28.3125 68.775 30.075 66.675L32.1375 64.2L35.625 60C51.15 60 63.75 48.2625 63.75 33.75C63.75 29.8125 62.8125 26.1 61.125 22.7625ZM45 36.5625H26.25C24.7125 36.5625 23.4375 35.2875 23.4375 33.75C23.4375 32.2125 24.7125 30.9375 26.25 30.9375H45C46.5375 30.9375 47.8125 32.2125 47.8125 33.75C47.8125 35.2875 46.5375 36.5625 45 36.5625Z" fill="#1ABCFE"/>
</svg>
