<svg width="90" height="90" viewBox="0 0 90 90" fill="none" xmlns="http://www.w3.org/2000/svg">
<path d="M44.998 82.2336C26.098 82.2336 10.6855 66.8586 10.6855 47.9211V40.8711C10.6855 39.4086 11.8855 38.2461 13.3105 38.2461C14.7355 38.2461 15.9355 39.4461 15.9355 40.8711V47.9211C15.9355 63.9336 28.948 76.9461 44.9605 76.9461C60.973 76.9461 73.9855 63.9336 73.9855 47.9211V40.8711C73.9855 39.4086 75.1855 38.2461 76.6105 38.2461C78.0355 38.2461 79.2355 39.4461 79.2355 40.8711V47.9211C79.3105 66.8586 63.898 82.2336 44.998 82.2336Z" fill="#5A9FD4"/>
<path d="M45.002 7.5C32.402 7.5 22.127 17.775 22.127 30.375V47.9625C22.127 60.5625 32.402 70.8375 45.002 70.8375C57.602 70.8375 67.877 60.5625 67.877 47.9625V30.375C67.877 17.775 57.602 7.5 45.002 7.5ZM53.177 39.7125C52.9145 40.725 51.977 41.4 50.9645 41.4C50.777 41.4 50.552 41.3625 50.3645 41.325C46.5395 40.275 42.4895 40.275 38.6645 41.325C37.427 41.6625 36.1895 40.95 35.852 39.7125C35.5145 38.5125 36.227 37.2375 37.4645 36.9C42.077 35.625 46.952 35.625 51.5645 36.9C52.802 37.2375 53.5145 38.475 53.177 39.7125ZM56.3644 29.325C56.0269 30.2625 55.1644 30.825 54.2269 30.825C53.9644 30.825 53.702 30.7875 53.4395 30.675C47.702 28.575 41.402 28.575 35.6645 30.675C34.4645 31.125 33.152 30.525 32.702 29.325C32.2895 28.1625 32.8895 26.85 34.0895 26.4C40.8395 23.9625 48.2645 23.9625 54.977 26.4C56.177 26.85 56.7769 28.1625 56.3644 29.325Z" fill="#5A9FD4"/>
</svg>
