<svg width="99" height="99" viewBox="0 0 99 99" fill="none" xmlns="http://www.w3.org/2000/svg">
<path d="M76.3127 16.9541L55.7289 9.24031C52.3052 7.96156 46.6952 7.96156 43.2714 9.24031L22.6877 16.9541C17.9439 18.7278 14.0664 24.3378 14.0664 29.3703V60.0191C14.0664 64.8866 17.2839 71.2803 21.2027 74.2091L38.9402 87.4503C44.7564 91.8228 54.3264 91.8228 60.1427 87.4503L77.8802 74.2091C81.7989 71.2803 85.0164 64.8866 85.0164 60.0191V29.3703C84.9339 24.3378 81.0564 18.7278 76.3127 16.9541ZM49.2114 28.9991C54.0789 28.9991 58.0389 32.9591 58.0389 37.8266C58.0389 42.6116 54.2852 46.4478 49.5414 46.6128H49.4589H49.3764C49.2939 46.6128 49.2114 46.6128 49.1289 46.6128C44.1789 46.4478 40.4664 42.6116 40.4664 37.8266C40.4252 32.9591 44.3852 28.9991 49.2114 28.9991ZM58.5339 67.4853C56.0177 69.1353 52.7589 70.0016 49.5002 70.0016C46.2414 70.0016 42.9414 69.1766 40.4664 67.4853C38.1152 65.9178 36.8364 63.7728 36.7952 61.4216C36.7952 59.1116 38.1152 56.8841 40.4664 55.3166C45.4577 52.0166 53.5839 52.0166 58.5752 55.3166C60.9264 56.8841 62.2464 59.0291 62.2464 61.3803C62.2052 63.6903 60.8852 65.9178 58.5339 67.4853Z" fill="#4AA73C"/>
</svg>
