<svg width="87" height="32" viewBox="0 0 87 32" fill="none" xmlns="http://www.w3.org/2000/svg">
<path d="M43.8864 20H40.6605V11.2727H43.8821C44.7713 11.2727 45.5369 11.4474 46.179 11.7969C46.8239 12.1435 47.321 12.6435 47.6705 13.2969C48.0199 13.9474 48.1946 14.7259 48.1946 15.6321C48.1946 16.5412 48.0199 17.3224 47.6705 17.9759C47.3239 18.6293 46.8281 19.1307 46.1832 19.4801C45.5384 19.8267 44.7727 20 43.8864 20ZM42.7699 18.2017H43.8054C44.294 18.2017 44.7074 18.1193 45.0455 17.9545C45.3864 17.7869 45.6435 17.5156 45.8168 17.1406C45.9929 16.7628 46.081 16.2599 46.081 15.6321C46.081 15.0043 45.9929 14.5043 45.8168 14.1321C45.6406 13.7571 45.3807 13.4872 45.0369 13.3224C44.696 13.1548 44.2756 13.071 43.7756 13.071H42.7699V18.2017ZM49.4261 20V13.4545H51.5099V20H49.4261ZM50.4702 12.6918C50.1776 12.6918 49.9261 12.5952 49.7159 12.402C49.5057 12.206 49.4006 11.9702 49.4006 11.6946C49.4006 11.4219 49.5057 11.1889 49.7159 10.9957C49.9261 10.7997 50.1776 10.7017 50.4702 10.7017C50.7656 10.7017 51.017 10.7997 51.2244 10.9957C51.4347 11.1889 51.5398 11.4219 51.5398 11.6946C51.5398 11.9702 51.4347 12.206 51.2244 12.402C51.017 12.5952 50.7656 12.6918 50.4702 12.6918ZM58.5508 15.4531L56.6374 15.5043C56.6175 15.3679 56.5636 15.2472 56.4755 15.142C56.3874 15.0341 56.2724 14.9503 56.1303 14.8906C55.9911 14.8281 55.8292 14.7969 55.6445 14.7969C55.4031 14.7969 55.1971 14.8452 55.0266 14.9418C54.859 15.0384 54.7766 15.169 54.7795 15.3338C54.7766 15.4616 54.8278 15.5724 54.9329 15.6662C55.0408 15.7599 55.2326 15.8352 55.5082 15.892L56.7695 16.1307C57.4229 16.2557 57.9087 16.4631 58.2269 16.7528C58.5479 17.0426 58.7099 17.4261 58.7127 17.9034C58.7099 18.3523 58.5763 18.7429 58.3121 19.0753C58.0508 19.4077 57.6928 19.6662 57.2383 19.8509C56.7837 20.0327 56.2638 20.1236 55.6786 20.1236C54.744 20.1236 54.0067 19.9318 53.467 19.5483C52.93 19.1619 52.6232 18.6449 52.5465 17.9972L54.6048 17.946C54.6502 18.1847 54.7681 18.3665 54.9585 18.4915C55.1488 18.6165 55.3917 18.679 55.6871 18.679C55.9542 18.679 56.1715 18.6293 56.3391 18.5298C56.5067 18.4304 56.592 18.2983 56.5948 18.1335C56.592 17.9858 56.5266 17.8679 56.3988 17.7798C56.271 17.6889 56.0707 17.6179 55.7979 17.5668L54.6559 17.3494C53.9996 17.2301 53.511 17.0099 53.19 16.6889C52.869 16.3651 52.7099 15.9531 52.7127 15.4531C52.7099 15.0156 52.8263 14.642 53.0621 14.3324C53.2979 14.0199 53.6332 13.7812 54.0678 13.6165C54.5025 13.4517 55.0153 13.3693 55.6062 13.3693C56.4925 13.3693 57.1914 13.5554 57.7028 13.9276C58.2141 14.2969 58.4968 14.8054 58.5508 15.4531ZM62.794 20.1236C62.1037 20.1236 61.5114 19.9815 61.017 19.6974C60.5256 19.4134 60.1477 19.0185 59.8835 18.5128C59.6193 18.0043 59.4872 17.4162 59.4872 16.7486C59.4872 16.0781 59.6193 15.4901 59.8835 14.9844C60.1506 14.4759 60.5298 14.0795 61.0213 13.7955C61.5156 13.5114 62.1051 13.3693 62.7898 13.3693C63.3949 13.3693 63.9219 13.4787 64.3707 13.6974C64.8224 13.9162 65.1747 14.2259 65.4276 14.6264C65.6832 15.0241 65.8182 15.4915 65.8324 16.0284H63.8849C63.8452 15.6932 63.7315 15.4304 63.544 15.2401C63.3594 15.0497 63.1179 14.9545 62.8196 14.9545C62.5781 14.9545 62.3665 15.0227 62.1847 15.1591C62.0028 15.2926 61.8608 15.4915 61.7585 15.7557C61.6591 16.017 61.6094 16.3409 61.6094 16.7273C61.6094 17.1136 61.6591 17.4403 61.7585 17.7074C61.8608 17.9716 62.0028 18.1719 62.1847 18.3082C62.3665 18.4418 62.5781 18.5085 62.8196 18.5085C63.0128 18.5085 63.1832 18.4673 63.331 18.3849C63.4815 18.3026 63.6051 18.1818 63.7017 18.0227C63.7983 17.8608 63.8594 17.6648 63.8849 17.4347H65.8324C65.8125 17.9744 65.6776 18.446 65.4276 18.8494C65.1804 19.2528 64.8324 19.5668 64.3835 19.7912C63.9375 20.0128 63.4077 20.1236 62.794 20.1236ZM69.9542 20.1236C69.2667 20.1236 68.6758 19.983 68.1815 19.7017C67.69 19.4176 67.3107 19.0227 67.0437 18.517C66.7795 18.0085 66.6474 17.419 66.6474 16.7486C66.6474 16.0753 66.7795 15.4858 67.0437 14.9801C67.3107 14.4716 67.69 14.0767 68.1815 13.7955C68.6758 13.5114 69.2667 13.3693 69.9542 13.3693C70.6417 13.3693 71.2312 13.5114 71.7227 13.7955C72.217 14.0767 72.5962 14.4716 72.8604 14.9801C73.1275 15.4858 73.261 16.0753 73.261 16.7486C73.261 17.419 73.1275 18.0085 72.8604 18.517C72.5962 19.0227 72.217 19.4176 71.7227 19.7017C71.2312 19.983 70.6417 20.1236 69.9542 20.1236ZM69.967 18.5511C70.217 18.5511 70.4286 18.4744 70.6019 18.321C70.7752 18.1676 70.9073 17.9545 70.9982 17.6818C71.092 17.4091 71.1388 17.0937 71.1388 16.7358C71.1388 16.3722 71.092 16.054 70.9982 15.7812C70.9073 15.5085 70.7752 15.2955 70.6019 15.142C70.4286 14.9886 70.217 14.9119 69.967 14.9119C69.7085 14.9119 69.4897 14.9886 69.3107 15.142C69.1346 15.2955 68.9996 15.5085 68.9059 15.7812C68.815 16.054 68.7695 16.3722 68.7695 16.7358C68.7695 17.0937 68.815 17.4091 68.9059 17.6818C68.9996 17.9545 69.1346 18.1676 69.3107 18.321C69.4897 18.4744 69.7085 18.5511 69.967 18.5511ZM74.3285 20V13.4545H76.3526V14.6477H76.4208C76.5401 14.2159 76.7347 13.8949 77.0046 13.6847C77.2745 13.4716 77.5884 13.3651 77.9464 13.3651C78.043 13.3651 78.1424 13.3722 78.2447 13.3864C78.3469 13.3977 78.4421 13.4162 78.5302 13.4418V15.2528C78.4308 15.2187 78.3001 15.1918 78.1381 15.1719C77.979 15.152 77.837 15.142 77.712 15.142C77.4648 15.142 77.2418 15.1974 77.043 15.3082C76.8469 15.4162 76.6921 15.5682 76.5785 15.7642C76.4677 15.9574 76.4123 16.1847 76.4123 16.446V20H74.3285ZM81.43 20.0938C80.9471 20.0938 80.5082 19.9688 80.1133 19.7188C79.7184 19.4688 79.4031 19.0938 79.1673 18.5938C78.9315 18.0938 78.8136 17.473 78.8136 16.7315C78.8136 15.9616 78.9357 15.3281 79.18 14.831C79.4244 14.3338 79.744 13.9659 80.1388 13.7273C80.5366 13.4886 80.9641 13.3693 81.4215 13.3693C81.7653 13.3693 82.0593 13.429 82.3036 13.5483C82.5479 13.6648 82.7496 13.8153 82.9087 14C83.0678 14.1847 83.1886 14.3764 83.271 14.5753H83.3136V11.2727H85.3974V20H83.3349V18.9389H83.271C83.1829 19.1406 83.0579 19.3295 82.896 19.5057C82.734 19.6818 82.5309 19.8239 82.2866 19.9318C82.0451 20.0398 81.7596 20.0938 81.43 20.0938ZM82.1545 18.4702C82.4073 18.4702 82.6232 18.3991 82.8022 18.2571C82.9812 18.1122 83.119 17.9091 83.2156 17.6477C83.3121 17.3864 83.3604 17.0795 83.3604 16.7273C83.3604 16.3693 83.3121 16.0611 83.2156 15.8026C83.1218 15.544 82.984 15.3452 82.8022 15.206C82.6232 15.0668 82.4073 14.9972 82.1545 14.9972C81.896 14.9972 81.6772 15.0682 81.4982 15.2102C81.3192 15.3523 81.1829 15.5526 81.0891 15.8111C80.9982 16.0696 80.9528 16.375 80.9528 16.7273C80.9528 17.0795 80.9996 17.3864 81.0934 17.6477C81.1871 17.9091 81.3221 18.1122 81.4982 18.2571C81.6772 18.3991 81.896 18.4702 82.1545 18.4702Z" fill="#EEEEEE"/>
<path d="M2 11.6C2 8.23969 2 6.55953 2.65396 5.27606C3.2292 4.14708 4.14708 3.2292 5.27606 2.65396C6.55953 2 8.23969 2 11.6 2H20.4C23.7603 2 25.4405 2 26.7239 2.65396C27.8529 3.2292 28.7708 4.14708 29.346 5.27606C30 6.55953 30 8.23969 30 11.6V20.4C30 23.7603 30 25.4405 29.346 26.7239C28.7708 27.8529 27.8529 28.7708 26.7239 29.346C25.4405 30 23.7603 30 20.4 30H11.6C8.23969 30 6.55953 30 5.27606 29.346C4.14708 28.7708 3.2292 27.8529 2.65396 26.7239C2 25.4405 2 23.7603 2 20.4V11.6Z" fill="white"/>
<path d="M23.6361 9.33998C22.212 8.71399 20.6892 8.25903 19.0973 8C18.9018 8.33209 18.6734 8.77875 18.5159 9.13408C16.8236 8.89498 15.1469 8.89498 13.4857 9.13408C13.3283 8.77875 13.0946 8.33209 12.8974 8C11.3037 8.25903 9.77927 8.71565 8.35518 9.3433C5.48276 13.4213 4.70409 17.3981 5.09342 21.3184C6.99856 22.6551 8.84487 23.467 10.66 23.9983C11.1082 23.4189 11.5079 22.8029 11.8523 22.1536C11.1964 21.9195 10.5683 21.6306 9.9748 21.2951C10.1323 21.1856 10.2863 21.071 10.4351 20.9531C14.0551 22.5438 17.9881 22.5438 21.5649 20.9531C21.7154 21.071 21.8694 21.1856 22.0251 21.2951C21.4299 21.6322 20.8 21.9211 20.1442 22.1553C20.4885 22.8029 20.8865 23.4205 21.3364 24C23.1533 23.4687 25.0013 22.6567 26.9065 21.3184C27.3633 16.7738 26.1261 12.8335 23.6361 9.33998ZM12.3454 18.9075C11.2587 18.9075 10.3676 17.9543 10.3676 16.7937C10.3676 15.6331 11.2397 14.6783 12.3454 14.6783C13.4511 14.6783 14.3422 15.6314 14.3232 16.7937C14.325 17.9543 13.4511 18.9075 12.3454 18.9075ZM19.6545 18.9075C18.5678 18.9075 17.6767 17.9543 17.6767 16.7937C17.6767 15.6331 18.5488 14.6783 19.6545 14.6783C20.7602 14.6783 21.6514 15.6314 21.6323 16.7937C21.6323 17.9543 20.7602 18.9075 19.6545 18.9075Z" fill="#5865F2"/>
</svg>
