<svg width="83" height="32" viewBox="0 0 83 32" fill="none" xmlns="http://www.w3.org/2000/svg">
<path d="M46.3878 14.1236C46.3395 13.9446 46.2685 13.7869 46.1747 13.6506C46.081 13.5114 45.9659 13.3935 45.8295 13.2969C45.6932 13.2003 45.5369 13.1278 45.3608 13.0795C45.1847 13.0284 44.9915 13.0028 44.7812 13.0028C44.358 13.0028 43.9915 13.1051 43.6818 13.3097C43.375 13.5142 43.1378 13.8125 42.9702 14.2045C42.8026 14.5937 42.7188 15.0668 42.7188 15.6236C42.7188 16.1832 42.7997 16.6605 42.9616 17.0554C43.1236 17.4503 43.358 17.7514 43.6648 17.9588C43.9716 18.1662 44.3438 18.2699 44.7812 18.2699C45.1676 18.2699 45.4943 18.2074 45.7614 18.0824C46.0313 17.9545 46.2358 17.7741 46.375 17.5412C46.5142 17.3082 46.5838 17.0341 46.5838 16.7188L46.9759 16.7656H44.8537V15.2273H48.6165V16.3821C48.6165 17.1634 48.4503 17.8324 48.1179 18.3892C47.7884 18.946 47.3338 19.3736 46.7543 19.6719C46.1776 19.9702 45.5142 20.1193 44.7642 20.1193C43.9318 20.1193 43.2003 19.9389 42.5696 19.5781C41.9389 19.2173 41.4474 18.7031 41.0952 18.0355C40.7429 17.3651 40.5668 16.5696 40.5668 15.6491C40.5668 14.9332 40.6733 14.2983 40.8864 13.7443C41.0994 13.1875 41.3963 12.7159 41.777 12.3295C42.1605 11.9432 42.6037 11.6506 43.1065 11.4517C43.6122 11.2528 44.1563 11.1534 44.7386 11.1534C45.2443 11.1534 45.7145 11.2259 46.1491 11.3707C46.5866 11.5156 46.973 11.7202 47.3082 11.9844C47.6463 12.2486 47.9205 12.5625 48.1307 12.9261C48.3409 13.2898 48.4716 13.6889 48.5227 14.1236H46.3878ZM52.9151 20.1236C52.2276 20.1236 51.6367 19.983 51.1424 19.7017C50.6509 19.4176 50.2717 19.0227 50.0046 18.517C49.7404 18.0085 49.6083 17.419 49.6083 16.7486C49.6083 16.0753 49.7404 15.4858 50.0046 14.9801C50.2717 14.4716 50.6509 14.0767 51.1424 13.7955C51.6367 13.5114 52.2276 13.3693 52.9151 13.3693C53.6026 13.3693 54.1921 13.5114 54.6836 13.7955C55.1779 14.0767 55.5572 14.4716 55.8214 14.9801C56.0884 15.4858 56.2219 16.0753 56.2219 16.7486C56.2219 17.419 56.0884 18.0085 55.8214 18.517C55.5572 19.0227 55.1779 19.4176 54.6836 19.7017C54.1921 19.983 53.6026 20.1236 52.9151 20.1236ZM52.9279 18.5511C53.1779 18.5511 53.3896 18.4744 53.5629 18.321C53.7362 18.1676 53.8683 17.9545 53.9592 17.6818C54.0529 17.4091 54.0998 17.0937 54.0998 16.7358C54.0998 16.3722 54.0529 16.054 53.9592 15.7812C53.8683 15.5085 53.7362 15.2955 53.5629 15.142C53.3896 14.9886 53.1779 14.9119 52.9279 14.9119C52.6694 14.9119 52.4506 14.9886 52.2717 15.142C52.0955 15.2955 51.9606 15.5085 51.8668 15.7812C51.7759 16.054 51.7305 16.3722 51.7305 16.7358C51.7305 17.0937 51.7759 17.4091 51.8668 17.6818C51.9606 17.9545 52.0955 18.1676 52.2717 18.321C52.4506 18.4744 52.6694 18.5511 52.9279 18.5511ZM60.3448 20.1236C59.6573 20.1236 59.0664 19.983 58.5721 19.7017C58.0806 19.4176 57.7013 19.0227 57.4343 18.517C57.1701 18.0085 57.038 17.419 57.038 16.7486C57.038 16.0753 57.1701 15.4858 57.4343 14.9801C57.7013 14.4716 58.0806 14.0767 58.5721 13.7955C59.0664 13.5114 59.6573 13.3693 60.3448 13.3693C61.0323 13.3693 61.6218 13.5114 62.1133 13.7955C62.6076 14.0767 62.9869 14.4716 63.2511 14.9801C63.5181 15.4858 63.6516 16.0753 63.6516 16.7486C63.6516 17.419 63.5181 18.0085 63.2511 18.517C62.9869 19.0227 62.6076 19.4176 62.1133 19.7017C61.6218 19.983 61.0323 20.1236 60.3448 20.1236ZM60.3576 18.5511C60.6076 18.5511 60.8192 18.4744 60.9925 18.321C61.1658 18.1676 61.2979 17.9545 61.3888 17.6818C61.4826 17.4091 61.5295 17.0937 61.5295 16.7358C61.5295 16.3722 61.4826 16.054 61.3888 15.7812C61.2979 15.5085 61.1658 15.2955 60.9925 15.142C60.8192 14.9886 60.6076 14.9119 60.3576 14.9119C60.0991 14.9119 59.8803 14.9886 59.7013 15.142C59.5252 15.2955 59.3903 15.5085 59.2965 15.7812C59.2056 16.054 59.1602 16.3722 59.1602 16.7358C59.1602 17.0937 59.2056 17.4091 59.2965 17.6818C59.3903 17.9545 59.5252 18.1676 59.7013 18.321C59.8803 18.4744 60.0991 18.5511 60.3576 18.5511ZM67.7702 22.5909C67.1481 22.5909 66.6154 22.5043 66.1722 22.331C65.729 22.1577 65.381 21.9205 65.1282 21.6193C64.8754 21.3182 64.7234 20.9773 64.6722 20.5966L66.6452 20.4858C66.6822 20.6193 66.7504 20.7358 66.8498 20.8352C66.9521 20.9347 67.0842 21.0114 67.2461 21.0653C67.4109 21.1193 67.604 21.1463 67.8256 21.1463C68.1751 21.1463 68.4634 21.0611 68.6907 20.8906C68.9208 20.723 69.0359 20.429 69.0359 20.0085V18.858H68.9634C68.881 19.0597 68.756 19.2401 68.5884 19.3991C68.4208 19.5582 68.212 19.6832 67.962 19.7741C67.7148 19.8651 67.4308 19.9105 67.1097 19.9105C66.6325 19.9105 66.195 19.7997 65.7972 19.5781C65.4023 19.3537 65.0856 19.0071 64.8469 18.5384C64.6112 18.0668 64.4933 17.4602 64.4933 16.7188C64.4933 15.9545 64.6154 15.3253 64.8597 14.831C65.104 14.3338 65.4237 13.9659 65.8185 13.7273C66.2163 13.4886 66.6438 13.3693 67.1012 13.3693C67.445 13.3693 67.739 13.429 67.9833 13.5483C68.2305 13.6648 68.4336 13.8153 68.5927 14C68.7518 14.1847 68.8725 14.3764 68.9549 14.5753H69.0146V13.4545H71.0898V20.0256C71.0898 20.5795 70.9506 21.0469 70.6722 21.4276C70.3938 21.8082 70.0046 22.0966 69.5046 22.2926C69.0046 22.4915 68.4265 22.5909 67.7702 22.5909ZM67.8342 18.3935C68.087 18.3935 68.3029 18.3267 68.4819 18.1932C68.6609 18.0597 68.7987 17.8679 68.8952 17.6179C68.9918 17.3679 69.0401 17.0682 69.0401 16.7188C69.0401 16.3636 68.9918 16.0582 68.8952 15.8026C68.8015 15.544 68.6637 15.3452 68.4819 15.206C68.3029 15.0668 68.087 14.9972 67.8342 14.9972C67.5756 14.9972 67.3569 15.0682 67.1779 15.2102C66.9989 15.3523 66.8626 15.5526 66.7688 15.8111C66.6779 16.0668 66.6325 16.3693 66.6325 16.7188C66.6325 17.0682 66.6793 17.3679 66.7731 17.6179C66.8668 17.8679 67.0018 18.0597 67.1779 18.1932C67.3569 18.3267 67.5756 18.3935 67.8342 18.3935ZM74.5021 11.2727V20H72.4183V11.2727H74.5021ZM78.8881 20.1236C78.2035 20.1236 77.6126 19.9886 77.1154 19.7188C76.6211 19.446 76.2404 19.0582 75.9734 18.5554C75.7092 18.0497 75.5771 17.4489 75.5771 16.7528C75.5771 16.0767 75.7106 15.4858 75.9776 14.9801C76.2447 14.4716 76.6211 14.0767 77.1069 13.7955C77.5927 13.5114 78.1651 13.3693 78.8242 13.3693C79.2901 13.3693 79.7163 13.4418 80.1026 13.5866C80.489 13.7315 80.8228 13.946 81.104 14.2301C81.3853 14.5142 81.604 14.8651 81.7603 15.2827C81.9165 15.6974 81.9947 16.1733 81.9947 16.7102V17.2301H76.3058V16.0199H80.0558C80.0529 15.7983 80.0004 15.6009 79.8981 15.4276C79.7958 15.2543 79.6552 15.1193 79.4762 15.0227C79.3001 14.9233 79.0969 14.8736 78.8668 14.8736C78.6339 14.8736 78.4251 14.9261 78.2404 15.0312C78.0558 15.1335 77.9094 15.2741 77.8015 15.4531C77.6935 15.6293 77.6367 15.8295 77.631 16.054V17.2855C77.631 17.5526 77.6836 17.7869 77.7887 17.9886C77.8938 18.1875 78.043 18.3423 78.2362 18.4531C78.4293 18.5639 78.6594 18.6193 78.9265 18.6193C79.1112 18.6193 79.2788 18.5937 79.4293 18.5426C79.5799 18.4915 79.7092 18.4162 79.8171 18.3168C79.9251 18.2173 80.006 18.0952 80.06 17.9503L81.9734 18.0057C81.8938 18.4347 81.7191 18.8082 81.4492 19.1264C81.1822 19.4418 80.8313 19.6875 80.3967 19.8636C79.962 20.0369 79.4592 20.1236 78.8881 20.1236Z" fill="#EEEEEE"/>
<path d="M30.0014 16.3114C30.0014 15.1603 29.9061 14.3203 29.6998 13.4492H16.2871V18.6447H24.1601C24.0014 19.9359 23.1442 21.8803 21.2394 23.1869L21.2127 23.3609L25.4536 26.5805L25.7474 26.6092C28.4458 24.167 30.0014 20.5736 30.0014 16.3114Z" fill="#4285F4"/>
<path d="M16.2853 30.0008C20.1424 30.0008 23.3804 28.7562 25.7456 26.6096L21.2377 23.1873C20.0313 24.0117 18.4123 24.5873 16.2853 24.5873C12.5076 24.5873 9.30128 22.1451 8.15832 18.7695L7.99078 18.7835L3.58111 22.128L3.52344 22.2851C5.87261 26.8584 10.698 30.0008 16.2853 30.0008Z" fill="#34A853"/>
<path d="M8.16061 18.768C7.85903 17.8969 7.6845 16.9635 7.6845 15.9991C7.6845 15.0346 7.85903 14.1013 8.14475 13.2302L8.13676 13.0447L3.67181 9.64648L3.52572 9.71458C2.55751 11.6124 2.00195 13.7435 2.00195 15.9991C2.00195 18.2546 2.55751 20.3857 3.52572 22.2835L8.16061 18.768Z" fill="#FBBC05"/>
<path d="M16.2854 7.4133C18.9679 7.4133 20.7774 8.54885 21.8092 9.4978L25.8409 5.64C23.3648 3.38445 20.1425 2 16.2854 2C10.698 2 5.87262 5.1422 3.52344 9.71549L8.14247 13.2311C9.30131 9.85555 12.5076 7.4133 16.2854 7.4133Z" fill="#EB4335"/>
</svg>
