<svg width="73" height="32" viewBox="0 0 73 32" fill="none" xmlns="http://www.w3.org/2000/svg">
<path d="M45.3778 13.8892C45.3494 13.5767 45.223 13.3338 44.9986 13.1605C44.777 12.9844 44.4602 12.8963 44.0483 12.8963C43.7756 12.8963 43.5483 12.9318 43.3665 13.0028C43.1847 13.0739 43.0483 13.1719 42.9574 13.2969C42.8665 13.419 42.8196 13.5597 42.8168 13.7188C42.8111 13.8494 42.8366 13.9645 42.8935 14.0639C42.9531 14.1634 43.0384 14.2514 43.1491 14.3281C43.2628 14.402 43.3991 14.4673 43.5582 14.5241C43.7173 14.581 43.8963 14.6307 44.0952 14.6733L44.8452 14.8438C45.277 14.9375 45.6577 15.0625 45.9872 15.2188C46.3196 15.375 46.598 15.5611 46.8224 15.777C47.0497 15.9929 47.2216 16.2415 47.3381 16.5227C47.4545 16.804 47.5142 17.1193 47.517 17.4688C47.5142 18.0199 47.375 18.4929 47.0994 18.8878C46.8239 19.2827 46.4276 19.5852 45.9105 19.7955C45.3963 20.0057 44.7756 20.1108 44.0483 20.1108C43.3182 20.1108 42.6818 20.0014 42.1392 19.7827C41.5966 19.5639 41.1747 19.2315 40.8736 18.7855C40.5724 18.3395 40.4176 17.7756 40.4091 17.0938H42.429C42.446 17.375 42.5213 17.6094 42.6548 17.7969C42.7884 17.9844 42.9716 18.1264 43.2045 18.223C43.4403 18.3196 43.7131 18.3679 44.0227 18.3679C44.3068 18.3679 44.5483 18.3295 44.7472 18.2528C44.9489 18.1761 45.1037 18.0696 45.2116 17.9332C45.3196 17.7969 45.375 17.6406 45.3778 17.4645C45.375 17.2997 45.3239 17.1591 45.2244 17.0426C45.125 16.9233 44.9716 16.821 44.7642 16.7358C44.5597 16.6477 44.2983 16.5668 43.9801 16.4929L43.0682 16.2798C42.3125 16.1065 41.7173 15.8267 41.2827 15.4403C40.848 15.0511 40.6321 14.5256 40.6349 13.8636C40.6321 13.3239 40.777 12.8509 41.0696 12.4446C41.3622 12.0384 41.767 11.7216 42.2841 11.4943C42.8011 11.267 43.3906 11.1534 44.0526 11.1534C44.7287 11.1534 45.3153 11.2685 45.8125 11.4986C46.3125 11.7259 46.7003 12.0455 46.9759 12.4574C47.2514 12.8693 47.392 13.3466 47.3977 13.8892H45.3778ZM50.6662 11.2727V20H48.5824V11.2727H50.6662ZM53.8377 20.1108C53.4201 20.1108 53.0494 20.0412 52.7255 19.902C52.4045 19.7599 52.1502 19.5469 51.9627 19.2628C51.7781 18.9759 51.6857 18.6165 51.6857 18.1847C51.6857 17.821 51.7496 17.5142 51.8775 17.2642C52.0053 17.0142 52.1815 16.8111 52.4059 16.6548C52.6303 16.4986 52.8888 16.3807 53.1815 16.3011C53.4741 16.2187 53.7866 16.1634 54.119 16.1349C54.4911 16.1009 54.7908 16.0653 55.0181 16.0284C55.2454 15.9886 55.4102 15.9332 55.5124 15.8622C55.6175 15.7884 55.6701 15.6847 55.6701 15.5511V15.5298C55.6701 15.3111 55.5948 15.142 55.4442 15.0227C55.2937 14.9034 55.0906 14.8438 54.8349 14.8438C54.5593 14.8438 54.3377 14.9034 54.1701 15.0227C54.0025 15.142 53.896 15.3068 53.8505 15.517L51.9286 15.4489C51.9854 15.0511 52.1317 14.696 52.3675 14.3835C52.6062 14.0682 52.9329 13.821 53.3477 13.642C53.7653 13.4602 54.2667 13.3693 54.8519 13.3693C55.2695 13.3693 55.6545 13.419 56.0067 13.5185C56.359 13.6151 56.6658 13.7571 56.9272 13.9446C57.1886 14.1293 57.3903 14.3565 57.5323 14.6264C57.6772 14.8963 57.7496 15.2045 57.7496 15.5511V20H55.7894V19.0881H55.7383C55.6218 19.3097 55.4727 19.4972 55.2908 19.6506C55.1119 19.804 54.9002 19.919 54.6559 19.9957C54.4144 20.0724 54.1417 20.1108 53.8377 20.1108ZM54.4812 18.7472C54.7056 18.7472 54.9073 18.7017 55.0863 18.6108C55.2681 18.5199 55.413 18.3949 55.521 18.2358C55.6289 18.0739 55.6829 17.8864 55.6829 17.6733V17.0511C55.6232 17.0824 55.5508 17.1108 55.4656 17.1364C55.3832 17.1619 55.2923 17.1861 55.1928 17.2088C55.0934 17.2315 54.9911 17.2514 54.886 17.2685C54.7809 17.2855 54.68 17.3011 54.5835 17.3153C54.3874 17.3466 54.2198 17.3949 54.0806 17.4602C53.9442 17.5256 53.8391 17.6108 53.7653 17.7159C53.6942 17.8182 53.6587 17.9403 53.6587 18.0824C53.6587 18.2983 53.7354 18.4631 53.8888 18.5767C54.0451 18.6903 54.2425 18.7472 54.4812 18.7472ZM62.0792 20.1236C61.3888 20.1236 60.7965 19.9815 60.3022 19.6974C59.8107 19.4134 59.4329 19.0185 59.1687 18.5128C58.9045 18.0043 58.7724 17.4162 58.7724 16.7486C58.7724 16.0781 58.9045 15.4901 59.1687 14.9844C59.4357 14.4759 59.815 14.0795 60.3065 13.7955C60.8008 13.5114 61.3903 13.3693 62.0749 13.3693C62.68 13.3693 63.207 13.4787 63.6559 13.6974C64.1076 13.9162 64.4599 14.2259 64.7127 14.6264C64.9684 15.0241 65.1033 15.4915 65.1175 16.0284H63.1701C63.1303 15.6932 63.0167 15.4304 62.8292 15.2401C62.6445 15.0497 62.4031 14.9545 62.1048 14.9545C61.8633 14.9545 61.6516 15.0227 61.4698 15.1591C61.288 15.2926 61.146 15.4915 61.0437 15.7557C60.9442 16.017 60.8945 16.3409 60.8945 16.7273C60.8945 17.1136 60.9442 17.4403 61.0437 17.7074C61.146 17.9716 61.288 18.1719 61.4698 18.3082C61.6516 18.4418 61.8633 18.5085 62.1048 18.5085C62.2979 18.5085 62.4684 18.4673 62.6161 18.3849C62.7667 18.3026 62.8903 18.1818 62.9869 18.0227C63.0835 17.8608 63.1445 17.6648 63.1701 17.4347H65.1175C65.0977 17.9744 64.9627 18.446 64.7127 18.8494C64.4656 19.2528 64.1175 19.5668 63.6687 19.7912C63.2227 20.0128 62.6928 20.1236 62.0792 20.1236ZM68.0632 18.2827L68.0717 15.7983H68.3615L70.2024 13.4545H72.5632L69.8274 16.8125H69.2777L68.0632 18.2827ZM66.1839 20V11.2727H68.2678V20H66.1839ZM70.2493 20L68.5362 17.2812L69.9084 15.8026L72.657 20H70.2493Z" fill="#EEEEEE"/>
<path d="M26.5002 14.9996C27.8808 14.9996 29 13.8804 29 12.4998C29 11.1192 27.8807 10 26.5001 10C25.1194 10 24 11.1193 24 12.5V14.9996H26.5002ZM19.5 14.9996C20.8807 14.9996 22 13.8803 22 12.4996V5.5C22 4.11929 20.8807 3 19.5 3C18.1193 3 17 4.11929 17 5.5V12.4996C17 13.8803 18.1193 14.9996 19.5 14.9996Z" fill="#2EB67D"/>
<path d="M5.49979 17.0004C4.11919 17.0004 3 18.1196 3 19.5002C3 20.8808 4.1193 22 5.49989 22C6.8806 22 8 20.8807 8 19.5V17.0004H5.49979ZM12.5 17.0004C11.1193 17.0004 10 18.1197 10 19.5004V26.5C10 27.8807 11.1193 29 12.5 29C13.8807 29 15 27.8807 15 26.5V19.5004C15 18.1197 13.8807 17.0004 12.5 17.0004Z" fill="#E01E5A"/>
<path d="M17.0004 26.5002C17.0004 27.8808 18.1196 29 19.5002 29C20.8808 29 22 27.8807 22 26.5001C22 25.1194 20.8807 24 19.5 24L17.0004 24L17.0004 26.5002ZM17.0004 19.5C17.0004 20.8807 18.1197 22 19.5004 22L26.5 22C27.8807 22 29 20.8807 29 19.5C29 18.1193 27.8807 17 26.5 17L19.5004 17C18.1197 17 17.0004 18.1193 17.0004 19.5Z" fill="#ECB22E"/>
<path d="M14.9996 5.49979C14.9996 4.11919 13.8804 3 12.4998 3C11.1192 3 10 4.1193 10 5.49989C10 6.88061 11.1193 8 12.5 8L14.9996 8L14.9996 5.49979ZM14.9996 12.5C14.9996 11.1193 13.8803 10 12.4996 10L5.5 10C4.11929 10 3 11.1193 3 12.5C3 13.8807 4.11929 15 5.5 15L12.4996 15C13.8803 15 14.9996 13.8807 14.9996 12.5Z" fill="#36C5F0"/>
</svg>
