<svg width="84" height="32" viewBox="0 0 84 32" fill="none" xmlns="http://www.w3.org/2000/svg">
<path d="M45.3778 13.8892C45.3494 13.5767 45.223 13.3338 44.9986 13.1605C44.777 12.9844 44.4602 12.8963 44.0483 12.8963C43.7756 12.8963 43.5483 12.9318 43.3665 13.0028C43.1847 13.0739 43.0483 13.1719 42.9574 13.2969C42.8665 13.419 42.8196 13.5597 42.8168 13.7188C42.8111 13.8494 42.8366 13.9645 42.8935 14.0639C42.9531 14.1634 43.0384 14.2514 43.1491 14.3281C43.2628 14.402 43.3991 14.4673 43.5582 14.5241C43.7173 14.581 43.8963 14.6307 44.0952 14.6733L44.8452 14.8438C45.277 14.9375 45.6577 15.0625 45.9872 15.2188C46.3196 15.375 46.598 15.5611 46.8224 15.777C47.0497 15.9929 47.2216 16.2415 47.3381 16.5227C47.4545 16.804 47.5142 17.1193 47.517 17.4688C47.5142 18.0199 47.375 18.4929 47.0994 18.8878C46.8239 19.2827 46.4276 19.5852 45.9105 19.7955C45.3963 20.0057 44.7756 20.1108 44.0483 20.1108C43.3182 20.1108 42.6818 20.0014 42.1392 19.7827C41.5966 19.5639 41.1747 19.2315 40.8736 18.7855C40.5724 18.3395 40.4176 17.7756 40.4091 17.0938H42.429C42.446 17.375 42.5213 17.6094 42.6548 17.7969C42.7884 17.9844 42.9716 18.1264 43.2045 18.223C43.4403 18.3196 43.7131 18.3679 44.0227 18.3679C44.3068 18.3679 44.5483 18.3295 44.7472 18.2528C44.9489 18.1761 45.1037 18.0696 45.2116 17.9332C45.3196 17.7969 45.375 17.6406 45.3778 17.4645C45.375 17.2997 45.3239 17.1591 45.2244 17.0426C45.125 16.9233 44.9716 16.821 44.7642 16.7358C44.5597 16.6477 44.2983 16.5668 43.9801 16.4929L43.0682 16.2798C42.3125 16.1065 41.7173 15.8267 41.2827 15.4403C40.848 15.0511 40.6321 14.5256 40.6349 13.8636C40.6321 13.3239 40.777 12.8509 41.0696 12.4446C41.3622 12.0384 41.767 11.7216 42.2841 11.4943C42.8011 11.267 43.3906 11.1534 44.0526 11.1534C44.7287 11.1534 45.3153 11.2685 45.8125 11.4986C46.3125 11.7259 46.7003 12.0455 46.9759 12.4574C47.2514 12.8693 47.392 13.3466 47.3977 13.8892H45.3778ZM48.5824 22.4545V13.4545H50.6449V14.5753H50.7088C50.794 14.3764 50.9148 14.1847 51.071 14C51.2301 13.8153 51.4318 13.6648 51.6761 13.5483C51.9233 13.429 52.2188 13.3693 52.5625 13.3693C53.017 13.3693 53.4418 13.4886 53.8366 13.7273C54.2344 13.9659 54.5554 14.3338 54.7997 14.831C55.044 15.3281 55.1662 15.9616 55.1662 16.7315C55.1662 17.473 55.0483 18.0938 54.8125 18.5938C54.5795 19.0938 54.2642 19.4688 53.8665 19.7188C53.4716 19.9688 53.0327 20.0938 52.5497 20.0938C52.2202 20.0938 51.9347 20.0398 51.6932 19.9318C51.4517 19.8239 51.2486 19.6818 51.0838 19.5057C50.9219 19.3295 50.7969 19.1406 50.7088 18.9389H50.6662V22.4545H48.5824ZM50.6236 16.7273C50.6236 17.0795 50.6705 17.3864 50.7642 17.6477C50.8608 17.9091 50.9986 18.1122 51.1776 18.2571C51.3594 18.3991 51.5767 18.4702 51.8295 18.4702C52.0852 18.4702 52.3026 18.3991 52.4815 18.2571C52.6605 18.1122 52.7955 17.9091 52.8864 17.6477C52.9801 17.3864 53.027 17.0795 53.027 16.7273C53.027 16.375 52.9801 16.0696 52.8864 15.8111C52.7955 15.5526 52.6605 15.3523 52.4815 15.2102C52.3054 15.0682 52.0881 14.9972 51.8295 14.9972C51.5739 14.9972 51.3565 15.0668 51.1776 15.206C50.9986 15.3452 50.8608 15.544 50.7642 15.8026C50.6705 16.0611 50.6236 16.3693 50.6236 16.7273ZM59.3136 20.1236C58.6261 20.1236 58.0352 19.983 57.5408 19.7017C57.0494 19.4176 56.6701 19.0227 56.4031 18.517C56.1388 18.0085 56.0067 17.419 56.0067 16.7486C56.0067 16.0753 56.1388 15.4858 56.4031 14.9801C56.6701 14.4716 57.0494 14.0767 57.5408 13.7955C58.0352 13.5114 58.6261 13.3693 59.3136 13.3693C60.0011 13.3693 60.5906 13.5114 61.082 13.7955C61.5763 14.0767 61.9556 14.4716 62.2198 14.9801C62.4869 15.4858 62.6204 16.0753 62.6204 16.7486C62.6204 17.419 62.4869 18.0085 62.2198 18.517C61.9556 19.0227 61.5763 19.4176 61.082 19.7017C60.5906 19.983 60.0011 20.1236 59.3136 20.1236ZM59.3263 18.5511C59.5763 18.5511 59.788 18.4744 59.9613 18.321C60.1346 18.1676 60.2667 17.9545 60.3576 17.6818C60.4513 17.4091 60.4982 17.0937 60.4982 16.7358C60.4982 16.3722 60.4513 16.054 60.3576 15.7812C60.2667 15.5085 60.1346 15.2955 59.9613 15.142C59.788 14.9886 59.5763 14.9119 59.3263 14.9119C59.0678 14.9119 58.8491 14.9886 58.6701 15.142C58.494 15.2955 58.359 15.5085 58.2653 15.7812C58.1744 16.054 58.1289 16.3722 58.1289 16.7358C58.1289 17.0937 58.1744 17.4091 58.2653 17.6818C58.359 17.9545 58.494 18.1676 58.6701 18.321C58.8491 18.4744 59.0678 18.5511 59.3263 18.5511ZM67.3825 13.4545V14.9886H63.2532V13.4545H67.3825ZM64.1183 11.8864H66.2021V17.9418C66.2021 18.0696 66.2219 18.1733 66.2617 18.2528C66.3043 18.3295 66.3654 18.3849 66.445 18.419C66.5245 18.4503 66.6197 18.4659 66.7305 18.4659C66.81 18.4659 66.8938 18.4588 66.9819 18.4446C67.0728 18.4276 67.141 18.4134 67.1864 18.402L67.5018 19.9062C67.4023 19.9347 67.2617 19.9702 67.0799 20.0128C66.9009 20.0554 66.6864 20.0824 66.4364 20.0938C65.9478 20.1165 65.5288 20.0597 65.1793 19.9233C64.8327 19.7841 64.5671 19.5682 64.3825 19.2756C64.2006 18.983 64.1126 18.6151 64.1183 18.1719V11.8864ZM68.4457 20V13.4545H70.5295V20H68.4457ZM69.4897 12.6918C69.1971 12.6918 68.9457 12.5952 68.7354 12.402C68.5252 12.206 68.4201 11.9702 68.4201 11.6946C68.4201 11.4219 68.5252 11.1889 68.7354 10.9957C68.9457 10.7997 69.1971 10.7017 69.4897 10.7017C69.7852 10.7017 70.0366 10.7997 70.244 10.9957C70.4542 11.1889 70.5593 11.4219 70.5593 11.6946C70.5593 11.9702 70.4542 12.206 70.244 12.402C70.0366 12.5952 69.7852 12.6918 69.4897 12.6918ZM75.576 13.4545V14.9886H71.3658V13.4545H75.576ZM72.2436 20V13.1222C72.2436 12.6165 72.3388 12.1974 72.5291 11.8651C72.7195 11.5298 72.9837 11.2798 73.3217 11.1151C73.6598 10.9474 74.0504 10.8636 74.4936 10.8636C74.7834 10.8636 75.0561 10.8864 75.3118 10.9318C75.5703 10.9744 75.7621 11.0128 75.8871 11.0469L75.5547 12.5724C75.478 12.5469 75.3842 12.5256 75.2734 12.5085C75.1655 12.4915 75.0632 12.483 74.9666 12.483C74.7223 12.483 74.5547 12.5369 74.4638 12.6449C74.3729 12.7528 74.3274 12.9006 74.3274 13.0881V20H72.2436ZM77.8526 22.4545C77.6026 22.4545 77.3668 22.4347 77.1452 22.3949C76.9237 22.358 76.7333 22.3082 76.5742 22.2457L77.0344 20.733C77.239 20.8011 77.4237 20.8409 77.5884 20.8523C77.756 20.8636 77.8995 20.8366 78.0188 20.7713C78.141 20.7088 78.2347 20.5966 78.3001 20.4347L78.381 20.2386L76.0543 13.4545H78.2362L79.4421 18.125H79.5103L80.7333 13.4545H82.9279L80.4606 20.6264C80.3413 20.9844 80.1722 21.2997 79.9535 21.5724C79.7376 21.848 79.4577 22.0639 79.114 22.2202C78.7731 22.3764 78.3526 22.4545 77.8526 22.4545Z" fill="#EEEEEE"/>
<circle cx="16" cy="16" r="14" fill="#1ED760"/>
<path d="M22.3643 21.623C22.1252 22.0025 21.6149 22.1087 21.2163 21.881C18.075 20.0593 14.1364 19.6494 9.48023 20.6514C9.03375 20.7425 8.58728 20.4844 8.4916 20.0593C8.39593 19.6343 8.667 19.2092 9.11348 19.1181C14.2002 18.0099 18.5693 18.4805 22.0773 20.5299C22.476 20.7576 22.6035 21.2434 22.3643 21.623ZM23.9908 18.1617C23.6878 18.6323 23.05 18.769 22.5557 18.4957C18.9679 16.3856 13.4985 15.7783 9.25699 17.008C8.6989 17.1598 8.12485 16.8714 7.96539 16.3552C7.80594 15.8239 8.1089 15.2774 8.667 15.1256C13.5145 13.7289 19.542 14.3969 23.6719 16.8106C24.1343 17.0839 24.2938 17.6911 23.9908 18.1617ZM24.1343 14.5487C19.829 12.1197 12.7332 11.892 8.61917 13.0761C7.96539 13.2735 7.26378 12.9243 7.05649 12.2867C6.8492 11.6643 7.23189 10.9964 7.88567 10.799C12.6056 9.43274 20.4509 9.70599 25.394 12.4993C25.984 12.8332 26.1754 13.5619 25.8246 14.1236C25.4897 14.7005 24.7243 14.8978 24.1343 14.5487Z" fill="white"/>
</svg>
