<svg width="75" height="32" viewBox="0 0 75 32" fill="none" xmlns="http://www.w3.org/2000/svg">
<path d="M2.56967 20.0269C4.30041 25.7964 9.65423 30 15.9906 30C23.7274 30 29.9995 23.7318 29.9995 16C29.9995 8.26803 23.7274 2 15.9906 2C8.56634 2 2.49151 7.77172 2.01172 15.0699C2.01172 17.1667 2.01172 18.0417 2.56967 20.0269Z" fill="url(#paint0_linear_300_79)"/>
<path d="M15.2706 12.5634L11.8426 17.54C11.0345 17.5033 10.221 17.7319 9.54572 18.1757L2.01829 15.0789C2.01829 15.0789 1.84411 17.9426 2.56999 20.0768L7.89147 22.2711C8.15866 23.4644 8.97779 24.5111 10.1863 25.0147C12.1635 25.8402 14.4433 24.8993 15.2658 22.9225C15.4799 22.4057 15.5797 21.8638 15.5652 21.323L20.5904 17.8224C23.5257 17.8224 25.9114 15.431 25.9114 12.4942C25.9114 9.55722 23.5257 7.16797 20.5904 7.16797C17.7553 7.16797 15.1117 9.64174 15.2706 12.5634ZM14.4469 22.5788C13.8103 24.1062 12.054 24.8308 10.5273 24.1951C9.82302 23.9019 9.29128 23.3647 8.98452 22.7242L10.7167 23.4416C11.8426 23.9103 13.1343 23.3767 13.6023 22.2519C14.0718 21.1259 13.5392 19.8329 12.4139 19.3642L10.6233 18.6227C11.3142 18.3608 12.0997 18.3511 12.8336 18.6564C13.5734 18.964 14.1475 19.5432 14.4517 20.2835C14.756 21.0238 14.7548 21.8409 14.4469 22.5788ZM20.5904 16.0438C18.6364 16.0438 17.0455 14.4516 17.0455 12.4942C17.0455 10.5384 18.6364 8.94567 20.5904 8.94567C22.5457 8.94567 24.1365 10.5384 24.1365 12.4942C24.1365 14.4516 22.5457 16.0438 20.5904 16.0438ZM17.9341 12.4888C17.9341 11.0163 19.127 9.82208 20.5964 9.82208C22.0671 9.82208 23.2599 11.0163 23.2599 12.4888C23.2599 13.9614 22.0671 15.1546 20.5964 15.1546C19.127 15.1546 17.9341 13.9614 17.9341 12.4888Z" fill="white"/>
<path d="M42.3778 13.8892C42.3494 13.5767 42.223 13.3338 41.9986 13.1605C41.777 12.9844 41.4602 12.8963 41.0483 12.8963C40.7756 12.8963 40.5483 12.9318 40.3665 13.0028C40.1847 13.0739 40.0483 13.1719 39.9574 13.2969C39.8665 13.419 39.8196 13.5597 39.8168 13.7188C39.8111 13.8494 39.8366 13.9645 39.8935 14.0639C39.9531 14.1634 40.0384 14.2514 40.1491 14.3281C40.2628 14.402 40.3991 14.4673 40.5582 14.5241C40.7173 14.581 40.8963 14.6307 41.0952 14.6733L41.8452 14.8438C42.277 14.9375 42.6577 15.0625 42.9872 15.2188C43.3196 15.375 43.598 15.5611 43.8224 15.777C44.0497 15.9929 44.2216 16.2415 44.3381 16.5227C44.4545 16.804 44.5142 17.1193 44.517 17.4688C44.5142 18.0199 44.375 18.4929 44.0994 18.8878C43.8239 19.2827 43.4276 19.5852 42.9105 19.7955C42.3963 20.0057 41.7756 20.1108 41.0483 20.1108C40.3182 20.1108 39.6818 20.0014 39.1392 19.7827C38.5966 19.5639 38.1747 19.2315 37.8736 18.7855C37.5724 18.3395 37.4176 17.7756 37.4091 17.0938H39.429C39.446 17.375 39.5213 17.6094 39.6548 17.7969C39.7884 17.9844 39.9716 18.1264 40.2045 18.223C40.4403 18.3196 40.7131 18.3679 41.0227 18.3679C41.3068 18.3679 41.5483 18.3295 41.7472 18.2528C41.9489 18.1761 42.1037 18.0696 42.2116 17.9332C42.3196 17.7969 42.375 17.6406 42.3778 17.4645C42.375 17.2997 42.3239 17.1591 42.2244 17.0426C42.125 16.9233 41.9716 16.821 41.7642 16.7358C41.5597 16.6477 41.2983 16.5668 40.9801 16.4929L40.0682 16.2798C39.3125 16.1065 38.7173 15.8267 38.2827 15.4403C37.848 15.0511 37.6321 14.5256 37.6349 13.8636C37.6321 13.3239 37.777 12.8509 38.0696 12.4446C38.3622 12.0384 38.767 11.7216 39.2841 11.4943C39.8011 11.267 40.3906 11.1534 41.0526 11.1534C41.7287 11.1534 42.3153 11.2685 42.8125 11.4986C43.3125 11.7259 43.7003 12.0455 43.9759 12.4574C44.2514 12.8693 44.392 13.3466 44.3977 13.8892H42.3778ZM49.277 13.4545V14.9886H45.1477V13.4545H49.277ZM46.0128 11.8864H48.0966V17.9418C48.0966 18.0696 48.1165 18.1733 48.1562 18.2528C48.1989 18.3295 48.2599 18.3849 48.3395 18.419C48.419 18.4503 48.5142 18.4659 48.625 18.4659C48.7045 18.4659 48.7884 18.4588 48.8764 18.4446C48.9673 18.4276 49.0355 18.4134 49.081 18.402L49.3963 19.9062C49.2969 19.9347 49.1563 19.9702 48.9744 20.0128C48.7955 20.0554 48.581 20.0824 48.331 20.0938C47.8423 20.1165 47.4233 20.0597 47.0739 19.9233C46.7273 19.7841 46.4616 19.5682 46.277 19.2756C46.0952 18.983 46.0071 18.6151 46.0128 18.1719V11.8864ZM53.3295 20.1236C52.6449 20.1236 52.054 19.9886 51.5568 19.7188C51.0625 19.446 50.6818 19.0582 50.4148 18.5554C50.1506 18.0497 50.0185 17.4489 50.0185 16.7528C50.0185 16.0767 50.152 15.4858 50.419 14.9801C50.6861 14.4716 51.0625 14.0767 51.5483 13.7955C52.0341 13.5114 52.6065 13.3693 53.2656 13.3693C53.7315 13.3693 54.1577 13.4418 54.544 13.5866C54.9304 13.7315 55.2642 13.946 55.5455 14.2301C55.8267 14.5142 56.0455 14.8651 56.2017 15.2827C56.358 15.6974 56.4361 16.1733 56.4361 16.7102V17.2301H50.7472V16.0199H54.4972C54.4943 15.7983 54.4418 15.6009 54.3395 15.4276C54.2372 15.2543 54.0966 15.1193 53.9176 15.0227C53.7415 14.9233 53.5384 14.8736 53.3082 14.8736C53.0753 14.8736 52.8665 14.9261 52.6818 15.0312C52.4972 15.1335 52.3509 15.2741 52.2429 15.4531C52.1349 15.6293 52.0781 15.8295 52.0724 16.054V17.2855C52.0724 17.5526 52.125 17.7869 52.2301 17.9886C52.3352 18.1875 52.4844 18.3423 52.6776 18.4531C52.8707 18.5639 53.1009 18.6193 53.3679 18.6193C53.5526 18.6193 53.7202 18.5937 53.8707 18.5426C54.0213 18.4915 54.1506 18.4162 54.2585 18.3168C54.3665 18.2173 54.4474 18.0952 54.5014 17.9503L56.4148 18.0057C56.3352 18.4347 56.1605 18.8082 55.8906 19.1264C55.6236 19.4418 55.2727 19.6875 54.8381 19.8636C54.4034 20.0369 53.9006 20.1236 53.3295 20.1236ZM59.3455 20.1108C58.9279 20.1108 58.5572 20.0412 58.2333 19.902C57.9123 19.7599 57.658 19.5469 57.4705 19.2628C57.2859 18.9759 57.1935 18.6165 57.1935 18.1847C57.1935 17.821 57.2575 17.5142 57.3853 17.2642C57.5131 17.0142 57.6893 16.8111 57.9137 16.6548C58.1381 16.4986 58.3967 16.3807 58.6893 16.3011C58.9819 16.2187 59.2944 16.1634 59.6268 16.1349C59.9989 16.1009 60.2987 16.0653 60.5259 16.0284C60.7532 15.9886 60.918 15.9332 61.0202 15.8622C61.1254 15.7884 61.1779 15.6847 61.1779 15.5511V15.5298C61.1779 15.3111 61.1026 15.142 60.9521 15.0227C60.8015 14.9034 60.5984 14.8438 60.3427 14.8438C60.0671 14.8438 59.8455 14.9034 59.6779 15.0227C59.5103 15.142 59.4038 15.3068 59.3583 15.517L57.4364 15.4489C57.4933 15.0511 57.6396 14.696 57.8754 14.3835C58.114 14.0682 58.4407 13.821 58.8555 13.642C59.2731 13.4602 59.7745 13.3693 60.3597 13.3693C60.7773 13.3693 61.1623 13.419 61.5146 13.5185C61.8668 13.6151 62.1737 13.7571 62.435 13.9446C62.6964 14.1293 62.8981 14.3565 63.0401 14.6264C63.185 14.8963 63.2575 15.2045 63.2575 15.5511V20H61.2972V19.0881H61.2461C61.1296 19.3097 60.9805 19.4972 60.7987 19.6506C60.6197 19.804 60.408 19.919 60.1637 19.9957C59.9222 20.0724 59.6495 20.1108 59.3455 20.1108ZM59.989 18.7472C60.2134 18.7472 60.4151 18.7017 60.5941 18.6108C60.7759 18.5199 60.9208 18.3949 61.0288 18.2358C61.1367 18.0739 61.1907 17.8864 61.1907 17.6733V17.0511C61.131 17.0824 61.0586 17.1108 60.9734 17.1364C60.891 17.1619 60.8001 17.1861 60.7006 17.2088C60.6012 17.2315 60.4989 17.2514 60.3938 17.2685C60.2887 17.2855 60.1879 17.3011 60.0913 17.3153C59.8952 17.3466 59.7276 17.3949 59.5884 17.4602C59.4521 17.5256 59.3469 17.6108 59.2731 17.7159C59.2021 17.8182 59.1665 17.9403 59.1665 18.0824C59.1665 18.2983 59.2433 18.4631 59.3967 18.5767C59.5529 18.6903 59.7504 18.7472 59.989 18.7472ZM64.5316 20V13.4545H66.5131V14.6562H66.5856C66.7219 14.2585 66.9521 13.9446 67.2759 13.7145C67.5998 13.4844 67.9862 13.3693 68.435 13.3693C68.8896 13.3693 69.2788 13.4858 69.6026 13.7188C69.9265 13.9517 70.1325 14.2642 70.2205 14.6562H70.2887C70.4109 14.267 70.6495 13.956 71.0046 13.723C71.3597 13.4872 71.7788 13.3693 72.2617 13.3693C72.881 13.3693 73.3839 13.5682 73.7702 13.9659C74.1566 14.3608 74.3498 14.9034 74.3498 15.5938V20H72.266V16.071C72.266 15.7443 72.1822 15.4957 72.0146 15.3253C71.8469 15.152 71.6296 15.0653 71.3626 15.0653C71.0756 15.0653 70.8498 15.1591 70.685 15.3466C70.5231 15.5312 70.4421 15.7798 70.4421 16.0923V20H68.4393V16.0497C68.4393 15.7457 68.3569 15.5057 68.1921 15.3295C68.0273 15.1534 67.81 15.0653 67.5401 15.0653C67.3583 15.0653 67.1978 15.1094 67.0586 15.1974C66.9194 15.2827 66.81 15.4048 66.7305 15.5639C66.6538 15.723 66.6154 15.9105 66.6154 16.1264V20H64.5316Z" fill="#EEEEEE"/>
<defs>
<linearGradient id="paint0_linear_300_79" x1="16.0056" y1="2" x2="16.0056" y2="30" gradientUnits="userSpaceOnUse">
<stop stop-color="#111D2E"/>
<stop offset="0.21248" stop-color="#051839"/>
<stop offset="0.40695" stop-color="#0A1B48"/>
<stop offset="0.5811" stop-color="#132E62"/>
<stop offset="0.7376" stop-color="#144B7E"/>
<stop offset="0.87279" stop-color="#136497"/>
<stop offset="1" stop-color="#1387B8"/>
</linearGradient>
</defs>
</svg>
