<svg width="183" height="47" viewBox="0 0 183 47" fill="none" xmlns="http://www.w3.org/2000/svg">
<path fill-rule="evenodd" clip-rule="evenodd" d="M26.8409 45.1028C31.4113 51.0079 0 42.9937 0 22.9368C0 0.184769 0.156144 -0.0213691 22.8859 0.000902739C45.4605 0.0230227 45.4605 0.204596 45.4594 22.4747L45.4594 22.9368C45.4594 31.8559 39.2837 35.0143 32.8384 36.2231C29.7524 36.613 26.6989 36.5129 25.1388 35.0795C25.8813 34.7839 26.5782 34.3746 27.2294 33.8515C28.4736 32.8426 29.3276 31.4725 29.7914 29.7413C30.1895 28.2557 30.1846 26.899 29.7767 25.6711C29.3843 24.4342 28.7768 23.3371 27.9543 22.3798C27.1317 21.4225 25.9659 20.2481 24.4569 18.8568L23.7551 18.2345C23.1654 17.7344 22.6902 17.2978 22.3295 16.9248C21.9689 16.5518 21.6877 16.1277 21.4861 15.6526C21.2999 15.1685 21.2809 14.6501 21.429 14.0976C21.5671 13.582 21.7654 13.1613 22.0237 12.8358C22.2976 12.5012 22.6896 12.2904 23.1998 12.2034C23.4855 12.2668 24.0142 12.4545 24.786 12.7666C25.561 13.0664 26.2783 13.4099 26.9378 13.7972L26.4823 17.7809C26.7186 18.0285 26.9926 18.2335 27.3044 18.396C27.6162 18.5585 28.036 18.7105 28.564 18.8519C29.0674 18.9868 29.4992 19.0696 29.8594 19.1003C30.223 19.1188 30.564 19.0983 30.8826 19.0389C31.3128 18.7594 31.781 18.24 32.2871 17.4808C32.8055 16.7249 33.2777 15.871 33.7038 14.9193C34.1455 13.9585 34.4814 13.0484 34.7117 12.189C34.4186 11.4656 34.0763 10.8278 33.6848 10.2754C33.3088 9.7141 32.842 9.14816 32.2842 8.57761C30.7769 7.81842 28.6542 7.072 25.9162 6.33835C22.7117 5.47969 20.1605 5.6449 18.2628 6.83398C16.3773 8.02635 15.0825 9.93628 14.3785 12.5638C13.8982 14.3564 13.8725 15.9747 14.3015 17.4187C14.746 18.8538 15.4188 20.1 16.3198 21.1573C17.2364 22.2057 18.4889 23.4493 20.0773 24.8882L20.638 25.374C21.4683 26.057 22.1144 26.6907 22.5763 27.2751C23.0382 27.8594 23.1886 28.4524 23.0274 29.0541C22.9912 29.1891 22.9251 29.3622 22.829 29.5733C22.7362 29.7722 22.6411 29.9309 22.5435 30.0495C22.3608 30.0927 22.1217 30.101 21.8262 30.0745C21.5429 30.0512 21.2724 30.005 21.0145 29.9359C19.6026 29.5576 18.2833 28.9804 17.0569 28.2044C15.8427 27.4316 14.4446 26.4122 12.8626 25.1461C12.2201 25.5792 11.6967 26.0838 11.2924 26.6598C10.888 27.2357 10.6019 27.8368 10.4342 28.463C10.3453 28.7945 10.2942 29.0834 10.2808 29.3299C10.5566 30.265 11.0188 31.0925 11.6676 31.8122C14.6187 37.4479 19.6838 40.4949 23.2909 42.6648C24.8346 43.5933 26.1112 44.3613 26.8409 45.1028Z" fill="#AC6AFF"/>
<path d="M64.4139 34.3606C63.0917 34.3606 61.7795 34.1202 60.4773 33.6394C59.1952 33.1586 58.0233 32.4574 56.9615 31.5359L59.5157 28.5008C60.257 29.1018 61.0683 29.5927 61.9498 29.9733C62.8513 30.3539 63.7728 30.5443 64.7144 30.5443C65.656 30.5443 66.3471 30.384 66.7878 30.0634C67.2486 29.7429 67.479 29.3322 67.479 28.8314C67.479 28.3706 67.3588 28.01 67.1184 27.7496C66.878 27.4691 66.5274 27.2287 66.0666 27.0284C65.6059 26.808 65.065 26.5676 64.4439 26.3072L61.9197 25.2254C61.1985 24.9449 60.5174 24.5743 59.8763 24.1135C59.2353 23.6327 58.7144 23.0518 58.3137 22.3706C57.9331 21.6695 57.7428 20.8381 57.7428 19.8765C57.7428 18.7947 58.0433 17.8231 58.6443 16.9616C59.2653 16.0802 60.1067 15.379 61.1685 14.8581C62.2503 14.3172 63.5024 14.0468 64.9247 14.0468C66.1067 14.0468 67.2686 14.2672 68.4105 14.7079C69.5524 15.1486 70.5641 15.7897 71.4456 16.6311L69.1918 19.4257C68.5107 18.9249 67.8296 18.5443 67.1484 18.2839C66.4673 18.0034 65.6459 17.8632 64.6843 17.8632C63.9631 17.8632 63.3722 18.0134 62.9114 18.3139C62.4506 18.6144 62.2202 19.0551 62.2202 19.6361C62.2202 20.0167 62.3605 20.3373 62.6409 20.5977C62.9214 20.8581 63.302 21.0885 63.7828 21.2889C64.2636 21.4892 64.8146 21.7095 65.4356 21.9499L67.8095 22.9716C68.691 23.2922 69.4423 23.6928 70.0633 24.1736C70.6843 24.6344 71.1651 25.2054 71.5057 25.8865C71.8463 26.5676 72.0165 27.369 72.0165 28.2905C72.0165 29.3723 71.716 30.374 71.115 31.2955C70.5341 32.217 69.6726 32.9583 68.5307 33.5192C67.4089 34.0801 66.0366 34.3606 64.4139 34.3606ZM76.0315 34L73.5974 19.0952H77.8645L78.7961 26.0067C78.8963 26.7279 78.9764 27.4591 79.0365 28.2004C79.1166 28.9215 79.1968 29.6628 79.2769 30.4241H79.367C79.4672 29.6628 79.5674 28.9115 79.6675 28.1703C79.7877 27.4291 79.918 26.7079 80.0582 26.0067L80.9897 21.0785H84.2051L85.1667 26.0067C85.3069 26.7279 85.4371 27.4591 85.5573 28.2004C85.6976 28.9215 85.8178 29.6628 85.9179 30.4241H86.0381C86.1383 29.6628 86.2084 28.9215 86.2485 28.2004C86.3086 27.4591 86.3787 26.7279 86.4588 26.0067L87.3002 19.0952H91.387L89.1032 34H83.9046L83.0932 29.1619C83.0131 28.5008 82.923 27.8097 82.8228 27.0885C82.7427 26.3673 82.6525 25.586 82.5523 24.7446H82.4321C82.372 25.3656 82.3019 26.0267 82.2218 26.7279C82.1417 27.409 82.0415 28.2204 81.9213 29.1619L81.14 34H76.0315ZM99.8494 34V22.5509H93.8394V19.0952H104.267V34H99.8494ZM101.863 16.7513C101.021 16.7513 100.32 16.5109 99.7593 16.0301C99.1983 15.5293 98.9179 14.8782 98.9179 14.0768C98.9179 13.2555 99.1983 12.5944 99.7593 12.0935C100.32 11.5727 101.021 11.3122 101.863 11.3122C102.724 11.3122 103.425 11.5727 103.966 12.0935C104.527 12.5944 104.808 13.2555 104.808 14.0768C104.808 14.8782 104.527 15.5293 103.966 16.0301C103.425 16.5109 102.724 16.7513 101.863 16.7513ZM111.677 34V19.0952H115.283L115.614 21.0785H115.734C116.375 20.4374 117.106 19.8865 117.928 19.4257C118.769 18.965 119.751 18.7346 120.873 18.7346C122.555 18.7346 123.788 19.2755 124.569 20.3573C125.35 21.4391 125.741 22.9216 125.741 24.8047V34H121.323V25.3757C121.323 24.374 121.153 23.6428 120.813 23.182C120.492 22.7212 119.931 22.4908 119.13 22.4908C118.529 22.4908 117.998 22.6311 117.537 22.9115C117.096 23.172 116.616 23.5526 116.095 24.0534V34H111.677ZM135.856 40.3406C134.554 40.3406 133.392 40.2003 132.37 39.9199C131.368 39.6594 130.567 39.2487 129.966 38.6878C129.385 38.1269 129.095 37.4057 129.095 36.5242C129.095 35.9232 129.285 35.3723 129.666 34.8715C130.066 34.3706 130.647 33.9299 131.408 33.5492V33.429C130.988 33.1486 130.627 32.808 130.327 32.4073C130.046 32.0067 129.906 31.4958 129.906 30.8748C129.906 30.374 130.066 29.8731 130.387 29.3723C130.727 28.8715 131.158 28.4407 131.679 28.0801V27.96C131.138 27.5993 130.677 27.0885 130.297 26.4274C129.916 25.7663 129.726 25.005 129.726 24.1436C129.726 22.9416 130.016 21.9399 130.597 21.1386C131.198 20.3373 131.979 19.7363 132.941 19.3356C133.923 18.9349 134.974 18.7346 136.096 18.7346C137.018 18.7346 137.839 18.8548 138.56 19.0952H144.6V22.3406H141.595C141.776 22.561 141.926 22.8514 142.046 23.212C142.186 23.5526 142.257 23.9132 142.257 24.2938C142.257 25.4358 141.976 26.3773 141.415 27.1185C140.874 27.8397 140.143 28.3806 139.221 28.7412C138.3 29.1018 137.258 29.2821 136.096 29.2821C135.816 29.2821 135.495 29.2621 135.135 29.222C134.774 29.162 134.413 29.0818 134.053 28.9816C133.812 29.1419 133.642 29.3022 133.542 29.4624C133.442 29.6227 133.392 29.8331 133.392 30.0935C133.392 30.4741 133.592 30.7546 133.993 30.9349C134.413 31.1152 135.055 31.2054 135.916 31.2054H138.681C140.644 31.2054 142.136 31.4958 143.158 32.0768C144.2 32.6578 144.721 33.6194 144.721 34.9616C144.721 36.0033 144.36 36.9249 143.639 37.7262C142.918 38.5476 141.886 39.1886 140.544 39.6494C139.221 40.1102 137.659 40.3406 135.856 40.3406ZM136.096 26.6077C136.517 26.6077 136.898 26.5175 137.238 26.3372C137.579 26.1569 137.849 25.8865 138.05 25.5259C138.25 25.1453 138.35 24.6845 138.35 24.1436C138.35 23.6227 138.25 23.182 138.05 22.8214C137.849 22.4608 137.579 22.1903 137.238 22.01C136.898 21.8097 136.517 21.7096 136.096 21.7096C135.696 21.7096 135.325 21.8097 134.984 22.01C134.644 22.1903 134.373 22.4608 134.173 22.8214C133.973 23.182 133.873 23.6227 133.873 24.1436C133.873 24.6845 133.973 25.1453 134.173 25.5259C134.373 25.8865 134.644 26.1569 134.984 26.3372C135.325 26.5175 135.696 26.6077 136.096 26.6077ZM136.487 37.5459C137.288 37.5459 137.989 37.4658 138.59 37.3055C139.191 37.1452 139.662 36.9249 140.003 36.6444C140.343 36.384 140.514 36.0835 140.514 35.7429C140.514 35.2421 140.293 34.9215 139.853 34.7813C139.412 34.6611 138.761 34.601 137.899 34.601H136.036C135.495 34.601 135.045 34.581 134.684 34.5409C134.343 34.5008 134.033 34.4508 133.752 34.3906C133.372 34.631 133.101 34.8614 132.941 35.0818C132.781 35.3222 132.701 35.5826 132.701 35.8631C132.701 36.404 133.041 36.8147 133.722 37.0952C134.403 37.3957 135.325 37.5459 136.487 37.5459ZM146.602 34V19.0952H149.938L150.238 20.9282H150.358C150.639 20.3272 151.029 19.8164 151.53 19.3957C152.031 18.955 152.712 18.7346 153.574 18.7346C154.215 18.7346 154.766 18.9449 155.226 19.3656C155.687 19.7663 155.998 20.3673 156.158 21.1686C156.438 20.4875 156.839 19.9166 157.36 19.4558C157.901 18.975 158.602 18.7346 159.463 18.7346C160.525 18.7346 161.347 19.1653 161.928 20.0267C162.509 20.8882 162.799 22.0601 162.799 23.5426V34H158.592V23.8431C158.592 22.9416 158.322 22.4908 157.781 22.4908C157.5 22.4908 157.25 22.611 157.029 22.8514C156.829 23.0718 156.629 23.4324 156.428 23.9333V34H152.973V23.8431C152.973 23.3823 152.903 23.0418 152.762 22.8214C152.622 22.601 152.412 22.4908 152.131 22.4908C151.851 22.4908 151.61 22.611 151.41 22.8514C151.21 23.0718 151.009 23.4324 150.809 23.9333V34H146.602ZM173.485 34.3606C171.942 34.3606 170.54 34.0601 169.278 33.4591C168.036 32.8381 167.044 31.9466 166.303 30.7846C165.582 29.6027 165.221 28.1903 165.221 26.5476C165.221 24.9249 165.592 23.5326 166.333 22.3706C167.074 21.1887 168.036 20.2872 169.218 19.6661C170.4 19.0451 171.652 18.7346 172.974 18.7346C174.517 18.7346 175.809 19.0551 176.851 19.6962C177.892 20.3172 178.674 21.1686 179.195 22.2504C179.735 23.3122 180.006 24.5242 180.006 25.8865C180.006 26.2872 179.976 26.6778 179.916 27.0584C179.876 27.419 179.836 27.6895 179.796 27.8698H168.497V24.8949H176.821L176.129 25.7363C176.129 24.5343 175.869 23.6328 175.348 23.0317C174.847 22.4107 174.106 22.1002 173.124 22.1002C172.403 22.1002 171.772 22.2605 171.231 22.581C170.69 22.9015 170.27 23.3923 169.969 24.0534C169.669 24.7145 169.518 25.5459 169.518 26.5476C169.518 27.5693 169.699 28.4107 170.059 29.0718C170.42 29.7129 170.941 30.1937 171.622 30.5142C172.303 30.8347 173.124 30.995 174.086 30.995C174.767 30.995 175.408 30.9049 176.009 30.7245C176.63 30.5442 177.271 30.2838 177.932 29.9432L179.405 32.6177C178.543 33.1586 177.592 33.5893 176.55 33.9099C175.508 34.2103 174.487 34.3606 173.485 34.3606Z" fill="white"/>
</svg>
