<svg width="46" height="47" viewBox="0 0 46 47" fill="none" xmlns="http://www.w3.org/2000/svg">
<path fill-rule="evenodd" clip-rule="evenodd" d="M26.8409 45.1028C31.4113 51.0079 0 42.9937 0 22.9368C0 0.184769 0.156144 -0.0213691 22.8859 0.000902739C45.4605 0.0230227 45.4605 0.204596 45.4594 22.4747L45.4594 22.9368C45.4594 31.8559 39.2837 35.0143 32.8384 36.2231C29.7524 36.613 26.6989 36.5129 25.1388 35.0795C25.8813 34.7839 26.5782 34.3746 27.2294 33.8515C28.4736 32.8426 29.3276 31.4725 29.7914 29.7413C30.1895 28.2557 30.1846 26.899 29.7767 25.6711C29.3843 24.4342 28.7768 23.3371 27.9543 22.3798C27.1317 21.4225 25.9659 20.2481 24.4569 18.8568L23.7551 18.2345C23.1654 17.7344 22.6902 17.2978 22.3295 16.9248C21.9689 16.5518 21.6877 16.1277 21.4861 15.6526C21.2999 15.1685 21.2809 14.6501 21.429 14.0976C21.5671 13.582 21.7654 13.1613 22.0237 12.8358C22.2976 12.5012 22.6896 12.2904 23.1998 12.2034C23.4855 12.2668 24.0142 12.4545 24.786 12.7666C25.561 13.0664 26.2783 13.4099 26.9378 13.7972L26.4823 17.7809C26.7186 18.0285 26.9926 18.2335 27.3044 18.396C27.6162 18.5585 28.036 18.7105 28.564 18.8519C29.0674 18.9868 29.4992 19.0696 29.8594 19.1003C30.223 19.1188 30.564 19.0983 30.8826 19.0389C31.3128 18.7594 31.781 18.24 32.2871 17.4808C32.8055 16.7249 33.2777 15.871 33.7038 14.9193C34.1455 13.9585 34.4814 13.0484 34.7117 12.189C34.4186 11.4656 34.0763 10.8278 33.6848 10.2754C33.3088 9.7141 32.842 9.14816 32.2842 8.57761C30.7769 7.81842 28.6542 7.072 25.9162 6.33835C22.7117 5.47969 20.1605 5.6449 18.2628 6.83398C16.3773 8.02635 15.0825 9.93628 14.3785 12.5638C13.8982 14.3564 13.8725 15.9747 14.3015 17.4187C14.746 18.8538 15.4188 20.1 16.3198 21.1573C17.2364 22.2057 18.4889 23.4493 20.0773 24.8882L20.638 25.374C21.4683 26.057 22.1144 26.6907 22.5763 27.2751C23.0382 27.8594 23.1886 28.4524 23.0274 29.0541C22.9912 29.1891 22.9251 29.3622 22.829 29.5733C22.7362 29.7722 22.6411 29.9309 22.5435 30.0495C22.3608 30.0927 22.1217 30.101 21.8262 30.0745C21.5429 30.0512 21.2724 30.005 21.0145 29.9359C19.6026 29.5576 18.2833 28.9804 17.0569 28.2044C15.8427 27.4316 14.4446 26.4122 12.8626 25.1461C12.2201 25.5792 11.6967 26.0838 11.2924 26.6598C10.888 27.2357 10.6019 27.8368 10.4342 28.463C10.3453 28.7945 10.2942 29.0834 10.2808 29.3299C10.5566 30.265 11.0188 31.0925 11.6676 31.8122C14.6187 37.4479 19.6838 40.4949 23.2909 42.6648C24.8346 43.5933 26.1112 44.3613 26.8409 45.1028Z" fill="#AC6AFF"/>
</svg>
